<svg xmlns="http://www.w3.org/2000/svg" width="800" height="712" viewBox="0 0 800 712" version="1.1"><path d="M 73.250 17.824 C 72.563 18.261, 91.078 18.591, 114.395 18.559 C 137.711 18.526, 156.274 18.169, 155.644 17.765 C 155.015 17.361, 136.500 17.031, 114.500 17.031 C 92.500 17.031, 73.938 17.388, 73.250 17.824 M 70 19.500 C 70 19.775, 70.225 20, 70.500 20 C 70.775 20, 71 19.775, 71 19.500 C 71 19.225, 70.775 19, 70.500 19 C 70.225 19, 70 19.225, 70 19.500 M 164 22.500 C 164 22.775, 164.225 23, 164.500 23 C 164.775 23, 165 22.775, 165 22.500 C 165 22.225, 164.775 22, 164.500 22 C 164.225 22, 164 22.225, 164 22.500 M 619 34.500 C 619 34.775, 619.225 35, 619.500 35 C 619.775 35, 620 34.775, 620 34.500 C 620 34.225, 619.775 34, 619.500 34 C 619.225 34, 619 34.225, 619 34.500 M 613 39.500 C 613 39.775, 613.225 40, 613.500 40 C 613.775 40, 614 39.775, 614 39.500 C 614 39.225, 613.775 39, 613.500 39 C 613.225 39, 613 39.225, 613 39.500 M 50.169 278.917 C 50.076 410.046, 50.184 517.146, 50.408 516.917 C 50.632 516.687, 51.088 432.800, 51.420 330.500 C 51.753 228.200, 51.645 121.100, 51.181 92.500 C 50.559 54.127, 50.293 102.980, 50.169 278.917 M 748 52.500 C 748 52.775, 748.225 53, 748.500 53 C 748.775 53, 749 52.775, 749 52.500 C 749 52.225, 748.775 52, 748.500 52 C 748.225 52, 748 52.225, 748 52.500 M 596 53.500 C 596 53.775, 596.225 54, 596.500 54 C 596.775 54, 597 53.775, 597 53.500 C 597 53.225, 596.775 53, 596.500 53 C 596.225 53, 596 53.225, 596 53.500 M 748.491 270.500 C 748.491 389.850, 748.608 438.527, 748.750 378.670 C 748.892 318.814, 748.892 221.164, 748.750 161.670 C 748.608 102.177, 748.491 151.150, 748.491 270.500 M 590 58.500 C 590 58.775, 590.225 59, 590.500 59 C 590.775 59, 591 58.775, 591 58.500 C 591 58.225, 590.775 58, 590.500 58 C 590.225 58, 590 58.225, 590 58.500 M 574 71.500 C 574 71.775, 574.225 72, 574.500 72 C 574.775 72, 575 71.775, 575 71.500 C 575 71.225, 574.775 71, 574.500 71 C 574.225 71, 574 71.225, 574 71.500 M 567 77.500 C 567 77.775, 567.225 78, 567.500 78 C 567.775 78, 568 77.775, 568 77.500 C 568 77.225, 567.775 77, 567.500 77 C 567.225 77, 567 77.225, 567 77.500 M 239 83.500 C 239 83.775, 239.225 84, 239.500 84 C 239.775 84, 240 83.775, 240 83.500 C 240 83.225, 239.775 83, 239.500 83 C 239.225 83, 239 83.225, 239 83.500 M 549 92.500 C 549 92.775, 549.225 93, 549.500 93 C 549.775 93, 550 92.775, 550 92.500 C 550 92.225, 549.775 92, 549.500 92 C 549.225 92, 549 92.225, 549 92.500 M 251 93.500 C 251 93.775, 251.225 94, 251.500 94 C 251.775 94, 252 93.775, 252 93.500 C 252 93.225, 251.775 93, 251.500 93 C 251.225 93, 251 93.225, 251 93.500 M 547 94.500 C 547 94.775, 547.225 95, 547.500 95 C 547.775 95, 548 94.775, 548 94.500 C 548 94.225, 547.775 94, 547.500 94 C 547.225 94, 547 94.225, 547 94.500 M 542 98.500 C 542 98.775, 542.225 99, 542.500 99 C 542.775 99, 543 98.775, 543 98.500 C 543 98.225, 542.775 98, 542.500 98 C 542.225 98, 542 98.225, 542 98.500 M 258 99.500 C 258 99.775, 258.225 100, 258.500 100 C 258.775 100, 259 99.775, 259 99.500 C 259 99.225, 258.775 99, 258.500 99 C 258.225 99, 258 99.225, 258 99.500 M 535 104.500 C 535 104.775, 535.225 105, 535.500 105 C 535.775 105, 536 104.775, 536 104.500 C 536 104.225, 535.775 104, 535.500 104 C 535.225 104, 535 104.225, 535 104.500 M 499 134.500 C 499 134.775, 499.225 135, 499.500 135 C 499.775 135, 500 134.775, 500 134.500 C 500 134.225, 499.775 134, 499.500 134 C 499.225 134, 499 134.225, 499 134.500 M 654 137 C 654 137.733, 654.300 138.033, 654.667 137.667 C 655.033 137.300, 655.033 136.700, 654.667 136.333 C 654.300 135.967, 654 136.267, 654 137 M 304.638 138.500 C 304.955 139.325, 305.671 140, 306.229 140 C 306.815 140, 306.718 139.365, 306 138.500 C 305.315 137.675, 304.599 137, 304.409 137 C 304.219 137, 304.322 137.675, 304.638 138.500 M 494 138.500 C 494 138.775, 494.225 139, 494.500 139 C 494.775 139, 495 138.775, 495 138.500 C 495 138.225, 494.775 138, 494.500 138 C 494.225 138, 494 138.225, 494 138.500 M 654.488 301.500 C 654.488 390.050, 654.606 426.127, 654.750 381.671 C 654.894 337.215, 654.894 264.765, 654.750 220.671 C 654.606 176.577, 654.488 212.950, 654.488 301.500 M 478 151.500 C 478 151.775, 478.225 152, 478.500 152 C 478.775 152, 479 151.775, 479 151.500 C 479 151.225, 478.775 151, 478.500 151 C 478.225 151, 478 151.225, 478 151.500 M 453 172.500 C 453 172.775, 453.225 173, 453.500 173 C 453.775 173, 454 172.775, 454 172.500 C 454 172.225, 453.775 172, 453.500 172 C 453.225 172, 453 172.225, 453 172.500 M 430.405 191.155 C 429.962 191.870, 430.130 192.038, 430.845 191.595 C 431.480 191.203, 432 190.684, 432 190.441 C 432 190.198, 431.802 190, 431.559 190 C 431.316 190, 430.797 190.520, 430.405 191.155 M 409.405 209.155 C 408.962 209.870, 409.130 210.038, 409.845 209.595 C 410.480 209.203, 411 208.684, 411 208.441 C 411 208.198, 410.802 208, 410.559 208 C 410.316 208, 409.797 208.520, 409.405 209.155 M 407 210.500 C 407 210.775, 407.225 211, 407.500 211 C 407.775 211, 408 210.775, 408 210.500 C 408 210.225, 407.775 210, 407.500 210 C 407.225 210, 407 210.225, 407 210.500 M 395 211.500 C 395 211.775, 395.225 212, 395.500 212 C 395.775 212, 396 211.775, 396 211.500 C 396 211.225, 395.775 211, 395.500 211 C 395.225 211, 395 211.225, 395 211.500 M 484.872 269.750 C 483.629 271.336, 483.664 271.371, 485.250 270.128 C 486.212 269.373, 487 268.585, 487 268.378 C 487 268.170, 486.830 268, 486.622 268 C 486.415 268, 485.627 268.788, 484.872 269.750 M 576.465 342 C 576.465 370.875, 576.593 382.688, 576.749 368.250 C 576.905 353.812, 576.905 330.187, 576.749 315.750 C 576.593 301.313, 576.465 313.125, 576.465 342 M 342 292.500 C 342 292.775, 342.225 293, 342.500 293 C 342.775 293, 343 292.775, 343 292.500 C 343 292.225, 342.775 292, 342.500 292 C 342.225 292, 342 292.225, 342 292.500 M 386 328.500 C 386 328.775, 386.225 329, 386.500 329 C 386.775 329, 387 328.775, 387 328.500 C 387 328.225, 386.775 328, 386.500 328 C 386.225 328, 386 328.225, 386 328.500 M 516.405 332.155 C 515.962 332.870, 516.130 333.038, 516.845 332.595 C 517.480 332.203, 518 331.684, 518 331.441 C 518 331.198, 517.802 331, 517.559 331 C 517.316 331, 516.797 331.520, 516.405 332.155 M 487.405 356.155 C 486.962 356.870, 487.130 357.038, 487.845 356.595 C 488.480 356.203, 489 355.684, 489 355.441 C 489 355.198, 488.802 355, 488.559 355 C 488.316 355, 487.797 355.520, 487.405 356.155 M 454 382.500 C 454 382.775, 454.225 383, 454.500 383 C 454.775 383, 455 382.775, 455 382.500 C 455 382.225, 454.775 382, 454.500 382 C 454.225 382, 454 382.225, 454 382.500 M 450 385.500 C 450 385.775, 450.225 386, 450.500 386 C 450.775 386, 451 385.775, 451 385.500 C 451 385.225, 450.775 385, 450.500 385 C 450.225 385, 450 385.225, 450 385.500 M 577.079 397.583 C 577.127 398.748, 577.364 398.985, 577.683 398.188 C 577.972 397.466, 577.936 396.603, 577.604 396.271 C 577.272 395.939, 577.036 396.529, 577.079 397.583 M 577 406.500 C 577 406.775, 577.225 407, 577.500 407 C 577.775 407, 578 406.775, 578 406.500 C 578 406.225, 577.775 406, 577.500 406 C 577.225 406, 577 406.225, 577 406.500 M 254 433.500 C 254 433.775, 254.225 434, 254.500 434 C 254.775 434, 255 433.775, 255 433.500 C 255 433.225, 254.775 433, 254.500 433 C 254.225 433, 254 433.225, 254 433.500 M 262.500 441 C 262.840 441.550, 263.343 442, 263.618 442 C 263.893 442, 263.840 441.550, 263.500 441 C 263.160 440.450, 262.657 440, 262.382 440 C 262.107 440, 262.160 440.450, 262.500 441 M 282.500 457 C 282.840 457.550, 283.343 458, 283.618 458 C 283.893 458, 283.840 457.550, 283.500 457 C 283.160 456.450, 282.657 456, 282.382 456 C 282.107 456, 282.160 456.450, 282.500 457 M 748.079 490.583 C 748.127 491.748, 748.364 491.985, 748.683 491.188 C 748.972 490.466, 748.936 489.603, 748.604 489.271 C 748.272 488.939, 748.036 489.529, 748.079 490.583 M 651 490.500 C 651 490.775, 651.225 491, 651.500 491 C 651.775 491, 652 490.775, 652 490.500 C 652 490.225, 651.775 490, 651.500 490 C 651.225 490, 651 490.225, 651 490.500 M 649 491.500 C 649 491.775, 649.225 492, 649.500 492 C 649.775 492, 650 491.775, 650 491.500 C 650 491.225, 649.775 491, 649.500 491 C 649.225 491, 649 491.225, 649 491.500 M 642.872 496.750 C 641.629 498.336, 641.664 498.371, 643.250 497.128 C 644.212 496.373, 645 495.585, 645 495.378 C 645 495.170, 644.830 495, 644.622 495 C 644.415 495, 643.627 495.788, 642.872 496.750 M 330 496.500 C 330 496.775, 330.225 497, 330.500 497 C 330.775 497, 331 496.775, 331 496.500 C 331 496.225, 330.775 496, 330.500 496 C 330.225 496, 330 496.225, 330 496.500 M 630 507.500 C 630 507.775, 630.225 508, 630.500 508 C 630.775 508, 631 507.775, 631 507.500 C 631 507.225, 630.775 507, 630.500 507 C 630.225 507, 630 507.225, 630 507.500 M 397 549.500 C 397 549.775, 397.225 550, 397.500 550 C 397.775 550, 398 549.775, 398 549.500 C 398 549.225, 397.775 549, 397.500 549 C 397.225 549, 397 549.225, 397 549.500 M 401 549.500 C 401 549.775, 401.225 550, 401.500 550 C 401.775 550, 402 549.775, 402 549.500 C 402 549.225, 401.775 549, 401.500 549 C 401.225 549, 401 549.225, 401 549.500 M 576 555.500 C 576 555.775, 576.225 556, 576.500 556 C 576.775 556, 577 555.775, 577 555.500 C 577 555.225, 576.775 555, 576.500 555 C 576.225 555, 576 555.225, 576 555.500 M 221.405 645.155 C 220.962 645.870, 221.130 646.038, 221.845 645.595 C 222.480 645.203, 223 644.684, 223 644.441 C 223 644.198, 222.802 644, 222.559 644 C 222.316 644, 221.797 644.520, 221.405 645.155" stroke="none" fill="#adb3ae" fill-rule="evenodd"/><path d="M 634.284 22.210 C 629.856 25.670, 623.093 31.200, 619.256 34.500 C 615.419 37.800, 606.254 45.468, 598.890 51.540 C 591.525 57.611, 580.594 66.611, 574.598 71.540 C 568.602 76.468, 560.277 83.413, 556.098 86.974 C 551.919 90.535, 548.275 93.691, 548 93.988 C 547.725 94.285, 545.032 96.546, 542.015 99.014 C 538.999 101.481, 535.624 104.249, 534.515 105.165 C 533.407 106.081, 525.300 112.792, 516.500 120.078 C 507.700 127.364, 500.275 133.604, 500 133.944 C 499.725 134.284, 493.425 139.469, 486 145.466 C 478.575 151.462, 468.254 159.998, 463.064 164.434 C 457.875 168.870, 450.853 174.750, 447.461 177.500 C 444.069 180.250, 435.040 187.612, 427.397 193.860 C 419.753 200.109, 412.567 206.316, 411.427 207.655 C 410.287 208.994, 407.362 210.647, 404.927 211.329 C 402.492 212.011, 399.373 212.422, 397.996 212.242 C 396.619 212.062, 392.056 209.121, 387.856 205.707 C 383.657 202.293, 370.834 191.775, 359.360 182.334 C 347.887 172.892, 331.640 159.505, 323.256 152.584 C 314.873 145.663, 307.365 140, 306.574 140 C 305.782 140, 304.865 139.213, 304.535 138.250 C 304.205 137.287, 293.983 128.400, 281.820 118.500 C 269.656 108.600, 256.508 97.784, 252.602 94.465 C 248.696 91.146, 237.850 82.154, 228.500 74.484 C 219.150 66.813, 202.040 52.633, 190.478 42.972 C 178.916 33.312, 166.766 23.854, 163.478 21.954 L 157.500 18.500 115 18.567 C 73.255 18.632, 72.411 18.673, 67.500 20.866 C 64.750 22.094, 60.775 24.764, 58.668 26.799 C 56.560 28.835, 54.137 31.832, 53.283 33.460 C 51.895 36.107, 51.704 62.158, 51.468 280.197 L 51.205 523.974 56.994 529.334 C 60.178 532.282, 75.376 544.100, 90.767 555.597 C 106.158 567.094, 125.395 581.225, 133.517 587 C 141.638 592.775, 159.957 606.275, 174.225 617 C 188.494 627.725, 203.618 638.867, 207.834 641.760 C 212.050 644.653, 216.313 647.279, 217.306 647.595 C 218.494 647.974, 220.034 647.200, 221.806 645.335 L 224.500 642.500 224.799 603 C 224.963 581.275, 224.829 562.028, 224.500 560.229 C 224.171 558.429, 222.461 555.316, 220.701 553.311 C 218.940 551.306, 205.350 539.042, 190.500 526.058 C 175.650 513.074, 159.807 499.369, 155.293 495.602 C 147.969 489.490, 147.023 488.308, 146.504 484.626 C 146.184 482.357, 146.052 402.052, 146.211 306.171 L 146.500 131.842 161.500 143.736 C 169.750 150.278, 185.100 162.801, 195.611 171.565 C 206.123 180.329, 224.307 195.375, 236.021 205 C 247.735 214.625, 261.860 226.251, 267.410 230.836 C 272.959 235.420, 280.425 241.575, 284 244.513 C 287.575 247.451, 295.946 254.274, 302.603 259.677 C 309.260 265.080, 323.435 276.689, 334.103 285.475 C 344.771 294.261, 360.025 306.866, 368 313.486 C 375.975 320.105, 384.975 327.376, 388 329.643 C 391.025 331.910, 394.937 334.491, 396.694 335.379 C 399.111 336.600, 400.528 336.750, 402.519 335.993 C 403.967 335.442, 407.207 333.578, 409.718 331.850 C 412.230 330.121, 422.659 321.766, 432.893 313.282 C 443.127 304.798, 458.427 292.151, 466.894 285.178 C 475.361 278.205, 483.205 271.488, 484.325 270.250 C 485.444 269.012, 486.765 268, 487.260 268 C 487.755 268, 496.062 261.363, 505.720 253.250 C 515.379 245.137, 531.241 231.975, 540.971 224 C 550.700 216.025, 563.799 205.291, 570.080 200.147 C 576.361 195.002, 584.650 188.164, 588.500 184.950 C 592.350 181.736, 601.800 173.842, 609.500 167.407 C 617.200 160.972, 630.328 150.148, 638.672 143.354 C 647.017 136.559, 654.113 131, 654.441 131 C 654.769 131, 654.917 210.762, 654.769 308.250 C 654.533 463.576, 654.314 485.839, 653 488.242 C 652.175 489.750, 651.190 490.988, 650.811 490.992 C 650.432 490.996, 648.124 492.687, 645.682 494.750 C 643.240 496.813, 635.926 503, 629.428 508.500 C 622.930 514, 611.277 524.125, 603.531 531 C 595.786 537.875, 586.915 545.656, 583.819 548.291 C 580.723 550.925, 577.472 554.593, 576.595 556.442 C 575.215 559.349, 575 565.379, 575 601.179 C 575 637.009, 575.209 642.853, 576.557 644.777 C 577.519 646.151, 579.142 646.993, 580.807 646.981 C 582.312 646.970, 587.134 644.655, 591.739 641.731 C 596.271 638.854, 609.546 629.259, 621.239 620.408 C 632.933 611.558, 646.922 601.208, 652.326 597.408 C 657.730 593.609, 665.830 587.874, 670.326 584.664 C 674.822 581.455, 682.325 576.181, 687 572.945 C 691.675 569.709, 700.284 563.560, 706.132 559.280 C 711.980 555.001, 720.755 548.599, 725.632 545.054 C 730.509 541.509, 736.826 536.647, 739.670 534.251 C 742.513 531.855, 745.595 528.741, 746.519 527.331 C 748.080 524.948, 748.191 507.626, 748.104 280.345 C 748.020 60.842, 747.852 35.614, 746.449 32.901 C 745.590 31.240, 743.262 28.083, 741.277 25.885 C 739.292 23.687, 735.605 20.677, 733.084 19.195 L 728.500 16.500 685.418 16.210 L 642.335 15.921 634.284 22.210 M 223.607 290.582 C 223.273 291.452, 223 318.407, 223 350.483 L 223 408.802 228.750 413.737 C 231.912 416.452, 238.656 421.896, 243.736 425.836 C 248.815 429.776, 253.428 433, 253.986 433 C 254.544 433, 255 433.434, 255 433.965 C 255 434.496, 257.212 436.633, 259.915 438.715 C 262.618 440.797, 268.581 445.535, 273.165 449.245 C 277.749 452.955, 283.300 457.521, 285.500 459.391 C 287.700 461.262, 296.250 468.371, 304.500 475.190 C 312.750 482.009, 323.586 490.943, 328.580 495.044 C 333.574 499.145, 343.637 507.450, 350.943 513.500 C 358.248 519.550, 370.137 529.392, 377.363 535.371 C 384.588 541.349, 392.224 547.031, 394.330 547.996 C 397.341 549.376, 399.032 549.556, 402.230 548.837 C 404.469 548.334, 407.695 546.959, 409.400 545.782 C 411.105 544.605, 416.100 540.681, 420.500 537.061 C 424.900 533.442, 431.795 527.785, 435.822 524.490 C 439.850 521.196, 446.423 515.800, 450.430 512.500 C 454.437 509.200, 470.950 495.425, 487.125 481.889 C 503.301 468.353, 520.802 453.818, 526.017 449.588 C 531.233 445.359, 542.216 436.634, 550.425 430.200 C 558.634 423.765, 567.634 416.676, 570.425 414.447 C 573.216 412.218, 576.136 409.078, 576.914 407.468 C 578.078 405.061, 578.122 403.338, 577.164 397.753 C 576.383 393.194, 576 374.211, 576 339.981 C 576 289.499, 575.980 289, 573.980 289 C 572.869 289, 570.282 290.069, 568.230 291.376 C 566.179 292.682, 560.198 297.070, 554.940 301.126 C 549.682 305.182, 538.274 314.350, 529.589 321.500 C 520.905 328.650, 509.232 338.242, 503.650 342.815 C 498.067 347.388, 492.307 352.221, 490.849 353.556 C 489.392 354.890, 484.198 359.023, 479.308 362.741 C 474.418 366.458, 465.991 373.100, 460.582 377.500 C 455.172 381.900, 446.376 389.100, 441.034 393.500 C 435.692 397.900, 425.932 406.058, 419.344 411.630 C 412.757 417.201, 405.924 422.505, 404.161 423.417 C 401.130 424.984, 400.713 424.967, 396.474 423.092 C 394.009 422.001, 388.056 417.725, 383.246 413.590 C 378.436 409.454, 365.950 398.985, 355.500 390.324 C 345.050 381.663, 327.500 367.344, 316.500 358.504 C 305.500 349.664, 288.475 335.921, 278.667 327.965 C 268.859 320.009, 255.359 309.274, 248.667 304.109 C 241.975 298.944, 234.499 293.431, 232.054 291.859 C 229.609 290.287, 226.845 289, 225.911 289 C 224.978 289, 223.941 289.712, 223.607 290.582" stroke="none" fill="#0c2b45" fill-rule="evenodd"/></svg>